# xmcd
#
# Track frame offsets:
#	150
#	17234
#	36505
#	54790
#	69261
#	83144
#	101314
#	117685
#	134654
#	152125
#	170037
#	183783
#	201397
#	221214
#	239445
#	257048
#	272581
#	291262
#	307644
#
# Disc length: 4306 seconds
#
# Revision: 0
# Processed by: cddbd v1.5.2PL0 Copyright (c) Steve Scherf et al.
# Submitted via: EZCDAudioConverter 3.1.0.1
#
DISCID=1810d013
DTITLE=Nu Urban Traxx Volume 234 US
DYEAR=2017
DGENRE=blues
TTITLE0=Kyle ft. Lil Yachty - iSpy
TTITLE1=Mariah Carey ft. YG - I Don't
TTITLE2=Migos - T-Shirt
TTITLE3=Gucci Mane ft. Drake - Both
TTITLE4=Kid Ink ft. 2 Chainz - Swish
TTITLE5=Rick Ross ft. Ty Dolla $ign - I Think She Like Me
TTITLE6=Jeremih ft. Chris Brown and Big Sean - I Think Of You
TTITLE7=2 Chainz x Gucci Mane x Quavo - Good Drank
TTITLE8=Lecrae ft. Ty Dolla $ign - Blessings
TTITLE9=Jacquees - B.E.D.\n
TTITLE10=A Boogie With Da Hoodie - Timeless
TTITLE11=Keyshia Cole ft. French Montana and Remy Ma - You
TTITLE12=Montana of 300 - Ice Cream Truck
TTITLE13=Jahkoy ft. ScHoolboy Q - California Heaven
TTITLE14=Fantasia - When I Met You
TTITLE15=Jhene Aiko - Maniac
TTITLE16=Luke Christopher - Lot To Learn
TTITLE17=DJ Snake ft. Jeremih, Young Thug and Swizz Beatz - The Half
TTITLE18=Yo Gotti - Blah Blah Blah
EXTD=
EXTT0=
EXTT1=
EXTT2=
EXTT3=
EXTT4=
EXTT5=
EXTT6=
EXTT7=
EXTT8=
EXTT9=
EXTT10=
EXTT11=
EXTT12=
EXTT13=
EXTT14=
EXTT15=
EXTT16=
EXTT17=
EXTT18=
PLAYORDER=
